#N canvas 827 239 527 327 12;
#X msg 350 92 open 1;
#X obj 270 278 list tosymbol;
#X obj 270 321 fromsymbol;
#X obj 270 235 zl group 100;
#X obj 270 136 comport 0 9600;
#X msg 270 24 devices;
#X obj 270 350 unpack f f;
#X obj 270 185 sel 10 10;
#X msg 270 92 close;
#X obj 316 390 mapping/smooth;
#X obj 195 390 mapping/smooth;
#X obj 195 520 ctlout 16 0;
#X obj 316 520 ctlout 20 0;
#X obj 195 454 scale 0 1 0 127;
#X obj 316 454 scale 0 1 0 127;
#X text 435 389 smooth jittery signal from Y;
#X text 27 389 smooth jittery signal from X;
#X text 427 453 rescale to MIDI control range (0-127);
#X text 391 519 send scaled values to MIDI CC20;
#X text 4 519 send scaled values to MIDI CC16;
#X text 378 135 set the receiver to channel 9600;
#X text 95 91 click here to stop the receiver;
#X text 337 23 click here to see list of available serial devices;
#X text 404 91 click here to start receiving from device 1: usually the Arduino;
#X text 337 184 look for new line characters - filters the raw data;
#X text 357 234 sort incoming values in a list;
#X text 359 277 group list values into pairs (for X and Y values from the accelerometer);
#X text 350 320 receive pairs;
#X text 345 349 split pairs;
#X connect 0 0 4 0 empty;
#X connect 1 0 2 0 empty;
#X connect 2 0 6 0 empty;
#X connect 3 0 1 0 empty;
#X connect 4 0 7 0 empty;
#X connect 5 0 4 0 empty;
#X connect 6 0 10 0 empty;
#X connect 6 1 9 0 empty;
#X connect 7 0 3 0 empty;
#X connect 7 2 3 0 empty;
#X connect 8 0 4 0 empty;
#X connect 9 0 14 0 empty;
#X connect 10 0 13 0 empty;
#X connect 13 0 11 0 empty;
#X connect 14 0 12 0 empty;
